<mxfile host="app.diagrams.net" modified="2023-04-02T06:24:50.559Z" agent="Mozilla/5.0 (Windows NT 10.0; Win64; x64) AppleWebKit/537.36 (KHTML, like Gecko) Chrome/111.0.0.0 Safari/537.36" version="21.1.1" etag="HfQ_qiWIjadGzBuCG187" type="github">
  <diagram name="Trang-1" id="zD-IbmvMEiWKlvfSK9KN">
    <mxGraphModel>
      <root>
        <mxCell id="0" />
        <mxCell id="1" parent="0" />
      </root>
    </mxGraphModel>
  </diagram>
</mxfile>
